<?xml version="1.0" ?><!DOCTYPE svg  PUBLIC '-//W3C//DTD SVG 1.1//EN'  'http://www.w3.org/Graphics/SVG/1.1/DTD/svg11.dtd'><svg xmlns="http://www.w3.org/2000/svg" xmlns:xlink="http://www.w3.org/1999/xlink" xml:space="preserve" width="2.83333in" height="2.83333in" version="1.1" style="shape-rendering:geometricPrecision; text-rendering:geometricPrecision; image-rendering:optimizeQuality; fill-rule:evenodd; clip-rule:evenodd" viewBox="0 0 2833 2833"><defs><style type="text/css">
   <![CDATA[
    .fil0 {fill:#061420}
    .fil2 {fill:#FFD80D}
    .fil1 {fill:white}
   ]]>
  </style></defs><g id="Layer_x0020_1"><circle class="fil0" cx="1417" cy="1417" r="1417"/><g id="_356227552"><path class="fil1" d="M1676 1289l-519 0c-54,0 -98,-44 -98,-98l0 -337c0,-54 44,-99 98,-99l519 0c54,0 99,45 99,99l0 337c0,54 -45,98 -99,98zm-412 -236c-46,0 -84,-37 -84,-83 0,-46 38,-84 84,-84 46,0 83,38 83,84 0,46 -37,83 -83,83zm153 113c-46,0 -92,-13 -127,-40 -9,-6 -11,-19 -4,-28 7,-9 19,-10 28,-4 57,44 149,44 205,0 9,-6 22,-5 28,4 7,9 5,22 -3,28 -35,27 -81,40 -127,40zm153 -113c-47,0 -84,-37 -84,-83 0,-46 37,-84 84,-84 46,0 83,38 83,84 0,46 -37,83 -83,83zm0 -127c-24,0 -44,20 -44,44 0,24 20,43 44,43 24,0 43,-19 43,-43 0,-24 -19,-44 -43,-44zm-306 0c-24,0 -44,20 -44,44 0,24 20,43 44,43 24,0 43,-19 43,-43 0,-24 -19,-44 -43,-44z"/><path class="fil1" d="M1019 1174l-13 0c-32,0 -58,-26 -58,-59l0 -173c0,-32 26,-58 58,-58l13 0 0 290z"/><path class="fil1" d="M1827 1167l-12 0 0 -289 12 0c32,0 58,26 58,58l0 173c0,32 -26,58 -58,58z"/><path class="fil1" d="M1417 795c-11,0 -20,-8 -20,-20l0 -75c0,-26 40,-26 40,0l0 75c0,12 -9,20 -20,20z"/><path class="fil1" d="M1417 720c-44,0 -79,-35 -79,-78 0,-44 35,-79 79,-79 43,0 78,35 78,79 0,43 -35,78 -78,78z"/><path class="fil2" d="M1550 1436l-266 0c-11,0 -20,-9 -20,-20l0 -87 306 0 0 87c0,11 -9,20 -20,20z"/><path class="fil2" d="M1820 1793l-807 0c-21,0 -39,-17 -39,-39l0 -319c0,-22 18,-39 39,-39l807 0c22,0 39,17 39,39l0 319c0,22 -17,39 -39,39zm-349 -179l-109 0c-26,0 -26,-40 0,-40l109 0c27,0 27,40 0,40zm200 60c-44,0 -80,-36 -80,-80 0,-44 36,-79 80,-79 44,0 80,35 80,79 0,44 -36,80 -80,80zm0 -119c-22,0 -40,18 -40,39 0,22 18,40 40,40 22,0 40,-18 40,-40 0,-21 -18,-39 -40,-39zm-509 119c-44,0 -79,-36 -79,-80 0,-44 35,-79 79,-79 44,0 80,35 80,79 0,44 -36,80 -80,80zm0 -119c-21,0 -39,18 -39,39 0,22 18,40 39,40 22,0 40,-18 40,-40 0,-21 -18,-39 -40,-39z"/><path class="fil1" d="M1265 2270l-187 0c-11,0 -20,-9 -20,-20 0,-63 51,-114 114,-114 62,0 114,51 114,114 -1,11 -9,20 -21,20zm490 0l-187 0c-11,0 -20,-9 -20,-20 0,-63 51,-114 114,-114 62,0 113,51 113,114 0,11 -9,20 -20,20z"/><path class="fil1" d="M1587 2116l0 -283 149 0 0 283c-22,-13 -47,-20 -74,-20 -28,0 -53,7 -75,20zm-490 0l0 -283 150 0 0 283c-23,-13 -48,-20 -75,-20 -27,0 -53,7 -75,20z"/><path class="fil2" d="M994 1632c-6,0 -11,-2 -15,-7l-241 -278c-8,-8 -7,-21 2,-28 8,-7 21,-6 28,2l241 278c11,13 2,33 -15,33zm-245 -444c-11,0 -20,-9 -20,-20l0 -167c0,-26 40,-26 40,0l0 167c0,11 -9,20 -20,20z"/><path class="fil2" d="M749 1022c-47,0 -85,-39 -85,-86l0 -54c0,-26 40,-26 40,0l0 54c0,25 20,46 45,46 25,0 45,-21 45,-46l0 -54c0,-26 40,-26 40,0l0 54c0,47 -38,86 -85,86z"/><path class="fil2" d="M749 1354c-57,0 -103,-46 -103,-103 0,-57 46,-103 103,-103 57,0 103,46 103,103 0,57 -46,103 -103,103z"/><path class="fil2" d="M1839 1614c-17,0 -26,-20 -15,-33l241 -277c8,-9 20,-10 29,-2 8,7 9,20 2,28l-242 278c-4,4 -9,6 -15,6zm246 -443c-11,0 -20,-9 -20,-20l0 -167c0,-27 40,-27 40,0l0 167c0,11 -9,20 -20,20z"/><path class="fil2" d="M2084 1004c-47,0 -85,-38 -85,-85l0 -54c0,-26 40,-26 40,0l0 54c0,25 20,45 45,45 25,0 45,-20 45,-45l0 -54c0,-26 40,-26 40,0l0 54c0,47 -38,85 -85,85z"/><path class="fil2" d="M2085 1337c-57,0 -103,-46 -103,-103 0,-57 46,-103 103,-103 56,0 103,46 103,103 0,57 -47,103 -103,103z"/></g></g></svg>